<?xml version="1.0" encoding="utf-8"?>
<!-- Generator: Adobe Illustrator 25.4.0, SVG Export Plug-In . SVG Version: 6.00 Build 0)  -->
<svg version="1.1" id="Layer_1" xmlns="http://www.w3.org/2000/svg" xmlns:xlink="http://www.w3.org/1999/xlink" x="0px" y="0px"
	 viewBox="0 0 206.92 238.93" style="enable-background:new 0 0 206.92 238.93;" xml:space="preserve">
<style type="text/css">
	.st0{fill:#D9B64E;}
	.st1{fill:#5D8C76;}
	.st2{fill:url(#SVGID_1_);}
	.st3{fill:#A6826D;}
	.st4{fill:#32594B;}
	.st5{fill:#F27141;}
</style>
<g>
	<polygon class="st0" points="206.92,59.73 159.41,87.16 103.46,54.85 103.46,0 	"/>
	<polygon class="st1" points="103.46,0 103.46,54.85 47.5,87.16 0,59.73 	"/>
	<linearGradient id="SVGID_1_" gradientUnits="userSpaceOnUse" x1="108.3282" y1="120.0272" x2="142.3558" y2="164.6224">
		<stop  offset="0" style="stop-color:#732222"/>
		<stop  offset="0.8797" style="stop-color:#F27141"/>
	</linearGradient>
	<polygon class="st2" points="103.46,119.57 103.46,148.85 133.8,166.53 159.41,151.77 	"/>
	<polygon class="st0" points="128.91,104.77 103.46,119.57 128.91,134.16 	"/>
	<polygon class="st3" points="78.01,104.77 78.01,134.16 103.46,148.85 103.46,119.57 	"/>
	<polygon class="st1" points="103.46,90.07 78.01,104.77 103.46,119.57 128.91,104.77 	"/>
	<polygon class="st3" points="0,59.73 47.5,87.16 47.5,151.77 0,179.2 	"/>
	<polygon class="st4" points="0,179.2 47.5,151.77 103.46,184.07 103.46,238.93 	"/>
	<polygon class="st5" points="103.46,238.93 103.46,184.07 159.41,151.77 206.92,179.2 	"/>
</g>
</svg>
