<?xml version="1.0" encoding="utf-8"?>
<!-- Generator: Adobe Illustrator 25.4.0, SVG Export Plug-In . SVG Version: 6.00 Build 0)  -->
<svg version="1.1" id="Layer_1" xmlns="http://www.w3.org/2000/svg" xmlns:xlink="http://www.w3.org/1999/xlink" x="0px" y="0px"
	 viewBox="0 0 206.92 238.93" style="enable-background:new 0 0 206.92 238.93;" xml:space="preserve">
<style type="text/css">
	.st0{fill:#FFE1F2;}
	.st1{fill:#F967B0;}
	.st2{fill:#FC3992;}
	.st3{fill:url(#SVGID_1_);}
	.st4{fill:#AF3594;}
	.st5{fill:#6945AF;}
	.st6{fill:#4956B2;}
</style>
<g>
	<polyline class="st0" points="206.92,179.2 206.92,179.2 159.41,151.77 	"/>
	<polygon class="st1" points="206.92,59.73 159.41,87.16 103.46,54.85 103.46,0 	"/>
	<polygon class="st2" points="103.46,0 103.46,54.85 47.5,87.16 0,59.73 	"/>
	<linearGradient id="SVGID_1_" gradientUnits="userSpaceOnUse" x1="97.2701" y1="130.9486" x2="145.9545" y2="158.5283">
		<stop  offset="9.245685e-03" style="stop-color:#293260"/>
		<stop  offset="0.2163" style="stop-color:#2F3971"/>
		<stop  offset="0.6224" style="stop-color:#404C9B"/>
		<stop  offset="0.8141" style="stop-color:#4956B2"/>
	</linearGradient>
	<polygon class="st3" points="103.46,119.57 103.46,148.85 133.8,166.53 159.41,151.77 	"/>
	<polygon class="st4" points="128.91,104.77 103.46,119.57 128.91,134.16 	"/>
	<polygon class="st1" points="78.01,104.77 78.01,134.16 103.46,148.85 103.46,119.57 	"/>
	<polygon class="st2" points="103.46,90.07 78.01,104.77 103.46,119.57 128.91,104.77 	"/>
	<polygon class="st4" points="0,59.73 47.5,87.16 47.5,151.77 0,179.2 	"/>
	<polygon class="st5" points="0,179.2 47.5,151.77 103.46,184.07 103.46,238.93 	"/>
	<polygon class="st6" points="103.46,238.93 103.46,184.07 159.41,151.77 206.92,179.2 	"/>
</g>
</svg>
