<?xml version="1.0" encoding="utf-8"?>
<!-- Generator: Adobe Illustrator 25.4.0, SVG Export Plug-In . SVG Version: 6.00 Build 0)  -->
<svg version="1.1" id="Layer_1" xmlns="http://www.w3.org/2000/svg" xmlns:xlink="http://www.w3.org/1999/xlink" x="0px" y="0px"
	 viewBox="0 0 595.28 841.89" style="enable-background:new 0 0 595.28 841.89;" xml:space="preserve">
<style type="text/css">
	.st0{fill:#EBE5DD;}
	.st1{fill:#666766;}
	.st2{font-family:'Grandview';}
	.st3{font-size:14px;}
	.st4{fill:none;stroke:#E32028;stroke-width:2;stroke-miterlimit:10;}
	.st5{font-family:'Grandview-Bold';}
	.st6{font-size:36px;}
	.st7{fill:#C2C8B8;}
	.st8{fill:#FFFFFF;}
	.st9{fill:#7A846C;}
	.st10{fill:#F99D1E;}
	.st11{fill:#C7CAB7;}
	.st12{fill:#F7931E;}
	.st13{fill:#0E7276;}
	.st14{fill:#F2BA1A;}
	.st15{fill:#F3E9E9;}
	.st16{clip-path:url(#SVGID_00000048494022438546682280000007170653217048804755_);}
	.st17{clip-path:url(#SVGID_00000048494022438546682280000007170653217048804755_);fill:#E32028;}
</style>
<rect class="st0" width="595.28" height="841.89"/>
<text transform="matrix(1 0 0 1 244.085 746.1517)" class="st1 st2 st3">June 22nd, 2023 </text>
<text transform="matrix(1 0 0 1 235.7832 762.9515)" class="st1 st2 st3">5:00 pm to 8:00 pm </text>
<text transform="matrix(1 0 0 1 235.3071 796.5521)" class="st1 st2 st3">???? address Street</text>
<line class="st4" x1="210.21" y1="773.59" x2="385.06" y2="773.59"/>
<text transform="matrix(1 0 0 1 40.1533 253.6888)" class="st5 st6">Symphony of </text>
<text transform="matrix(1 0 0 1 44.2935 296.889)" class="st5 st6">Expressions </text>
<rect x="316.29" y="330.67" class="st7" width="56.1" height="56.1"/>
<rect x="344.34" y="358.72" class="st8" width="28.05" height="28.05"/>
<rect x="344.34" y="386.77" class="st9" width="28.05" height="28.05"/>
<rect x="400.43" y="498.03" class="st9" width="28.05" height="28.41"/>
<rect x="344.34" y="413.99" class="st10" width="28.05" height="28.05"/>
<rect x="372.39" y="386.77" class="st11" width="28.05" height="28.05"/>
<rect x="372.39" y="358.72" class="st12" width="28.05" height="28.05"/>
<rect x="427.64" y="498.31" class="st12" width="28.05" height="28.05"/>
<rect x="372.39" y="442.04" class="st13" width="28.05" height="28.05"/>
<rect x="316.29" y="442.04" class="st13" width="28.05" height="28.05"/>
<rect x="316.29" y="470.26" class="st13" width="28.05" height="28.05"/>
<rect x="344.34" y="470.26" class="st13" width="28.05" height="28.05"/>
<rect x="427.73" y="554.49" class="st13" width="28.22" height="28.05"/>
<rect x="455.95" y="554.49" class="st13" width="28.05" height="28.05"/>
<rect x="455.69" y="526.08" class="st13" width="28.22" height="28.41"/>
<rect x="344.34" y="498.35" class="st14" width="28.05" height="28.05"/>
<rect x="344.34" y="526.44" class="st14" width="28.05" height="28.05"/>
<rect x="372.39" y="526.44" class="st14" width="28.05" height="28.05"/>
<rect x="372.39" y="413.99" class="st15" width="28.05" height="28.05"/>
<rect x="372.39" y="498.31" class="st15" width="28.05" height="28.05"/>
<rect x="344.34" y="442.04" class="st15" width="28.05" height="28.05"/>
<rect x="372.39" y="470.08" class="st7" width="55.26" height="28.22"/>
<rect x="400.43" y="526.35" class="st15" width="27.21" height="28.14"/>
<rect x="427.64" y="526.44" class="st15" width="28.05" height="28.05"/>
<rect x="372.39" y="554.49" class="st9" width="55.26" height="55.25"/>
<text transform="matrix(1 0 0 1 316.1729 72.3143)" class="st1 st2 st3">Natalie Reynolds</text>
<text transform="matrix(1 0 0 1 316.1729 89.1141)" class="st1 st2 st3">Katherine Duclos</text>
<text transform="matrix(1 0 0 1 316.1729 105.9144)" class="st1 st2 st3">Daniil Alikov</text>
<text transform="matrix(1 0 0 1 316.1729 122.7142)" class="st1 st2 st3">Danielle Bobier</text>
<text transform="matrix(1 0 0 1 316.1729 139.514)" class="st1 st2 st3">Mike Bock</text>
<text transform="matrix(1 0 0 1 316.1729 156.3143)" class="st1 st2 st3">Collin Patrick</text>
<g>
	<defs>
		<rect id="SVGID_1_" width="595.28" height="841.89"/>
	</defs>
	<clipPath id="SVGID_00000135665500711744665490000014837574189713422517_">
		<use xlink:href="#SVGID_1_"  style="overflow:visible;"/>
	</clipPath>
	<path style="clip-path:url(#SVGID_00000135665500711744665490000014837574189713422517_);" d="M219.02,341.15l-0.06,1.15
		c-0.31-0.14-0.62-0.25-0.95-0.33c-0.33-0.08-0.65-0.11-0.99-0.11c-0.39,0-0.7,0.08-0.93,0.24c-0.23,0.16-0.35,0.37-0.35,0.63
		c0,0.23,0.1,0.44,0.29,0.62c0.19,0.18,0.59,0.42,1.2,0.7c0.8,0.37,1.36,0.74,1.66,1.09c0.3,0.35,0.46,0.78,0.46,1.27
		c0,0.7-0.28,1.25-0.84,1.66c-0.56,0.41-1.31,0.61-2.27,0.61c-0.35,0-0.69-0.03-1.03-0.1c-0.34-0.06-0.67-0.16-0.99-0.28l0.04-1.19
		c0.35,0.17,0.69,0.3,1.04,0.39c0.35,0.09,0.68,0.13,0.99,0.13c0.47,0,0.84-0.1,1.11-0.3c0.27-0.2,0.41-0.47,0.41-0.82
		c0-0.25-0.08-0.47-0.25-0.65c-0.16-0.18-0.55-0.42-1.15-0.71c-0.8-0.39-1.35-0.76-1.65-1.1c-0.3-0.34-0.45-0.73-0.45-1.19
		c0-0.6,0.25-1.09,0.76-1.45c0.51-0.37,1.18-0.55,2.02-0.55c0.31,0,0.62,0.02,0.94,0.07C218.37,340.98,218.7,341.05,219.02,341.15"
		/>
	<path style="clip-path:url(#SVGID_00000135665500711744665490000014837574189713422517_);" d="M226.06,338.59v2.37h1.83v1.08h-1.83
		V346c0,0.6,0.09,1.02,0.26,1.27c0.17,0.25,0.46,0.38,0.86,0.38c0.1,0,0.21-0.01,0.34-0.04c0.13-0.03,0.27-0.07,0.43-0.13l0.01,1.12
		c-0.19,0.05-0.38,0.09-0.57,0.11c-0.19,0.02-0.39,0.04-0.59,0.04c-0.77,0-1.33-0.2-1.66-0.6c-0.33-0.4-0.5-1.07-0.5-2.01v-4.1
		h-1.54v-1.08h1.59v-1.89L226.06,338.59z"/>
	<path style="clip-path:url(#SVGID_00000135665500711744665490000014837574189713422517_);" d="M232.31,340.95h1.41v4.24
		c0,0.79,0.14,1.37,0.41,1.74c0.28,0.37,0.7,0.56,1.28,0.56c0.67,0,1.18-0.26,1.52-0.77c0.35-0.51,0.53-1.25,0.53-2.23v-3.54h1.41
		v7.65h-1.29v-1.48c-0.28,0.54-0.64,0.93-1.08,1.19c-0.44,0.26-0.96,0.39-1.57,0.39c-0.86,0-1.52-0.27-1.96-0.81
		c-0.45-0.54-0.67-1.34-0.67-2.39V340.95z"/>
	<path style="clip-path:url(#SVGID_00000135665500711744665490000014837574189713422517_);" d="M249.44,337.22h1.41v11.39h-1.29
		v-1.56c-0.3,0.56-0.67,0.97-1.12,1.25c-0.45,0.28-0.97,0.42-1.57,0.42c-0.91,0-1.66-0.38-2.25-1.14c-0.59-0.76-0.88-1.73-0.88-2.92
		c0-1.18,0.29-2.12,0.87-2.83c0.58-0.71,1.34-1.06,2.29-1.06c0.55,0,1.04,0.12,1.47,0.35c0.43,0.23,0.78,0.59,1.07,1.05V337.22z
		 M247.25,341.87c-0.61,0-1.1,0.26-1.47,0.78c-0.37,0.52-0.55,1.22-0.55,2.1c0,0.87,0.18,1.56,0.55,2.07s0.87,0.76,1.49,0.76
		c0.65,0,1.17-0.26,1.56-0.77c0.4-0.52,0.59-1.2,0.59-2.06c0-0.9-0.2-1.6-0.59-2.11C248.46,342.12,247.93,341.87,247.25,341.87"/>
	<path style="clip-path:url(#SVGID_00000135665500711744665490000014837574189713422517_);" d="M256.17,337.45h1.41v1.41h-1.41
		V337.45z M256.17,340.95h1.41v7.65h-1.41V340.95z"/>
	<path style="clip-path:url(#SVGID_00000135665500711744665490000014837574189713422517_);" d="M266.12,340.76
		c1.18,0,2.1,0.36,2.78,1.08c0.68,0.72,1.02,1.7,1.02,2.94c0,1.23-0.34,2.21-1.02,2.93c-0.68,0.72-1.61,1.08-2.77,1.08
		c-1.17,0-2.09-0.36-2.76-1.08c-0.68-0.72-1.02-1.7-1.02-2.93c0-1.24,0.34-2.22,1.02-2.94
		C264.03,341.12,264.95,340.76,266.12,340.76 M266.14,341.85c-0.68,0-1.23,0.27-1.65,0.8c-0.42,0.53-0.63,1.24-0.63,2.11
		c0,0.86,0.21,1.56,0.63,2.1c0.42,0.53,0.97,0.8,1.65,0.8c0.69,0,1.24-0.26,1.66-0.79c0.42-0.52,0.62-1.23,0.62-2.11
		c0-0.88-0.21-1.59-0.62-2.12C267.38,342.12,266.83,341.85,266.14,341.85"/>
	
		<rect x="274.87" y="346.97" style="clip-path:url(#SVGID_00000135665500711744665490000014837574189713422517_);" width="1.57" height="1.63"/>
	<polygon style="clip-path:url(#SVGID_00000135665500711744665490000014837574189713422517_);" points="243.76,359.02 
		245.48,359.02 247.11,361.74 248.78,359.02 250.35,359.02 247.91,362.58 250.55,366.67 248.87,366.67 246.99,363.54 245.09,366.67 
		243.5,366.67 246.19,362.63 	"/>
	<path style="clip-path:url(#SVGID_00000135665500711744665490000014837574189713422517_);" d="M253.49,359.02h1.52l2.08,6.28
		l2.05-6.28h1.44l-3.04,8.42c-0.33,0.93-0.7,1.59-1.11,1.97c-0.41,0.38-0.95,0.57-1.59,0.57c-0.15,0-0.3-0.01-0.46-0.03
		c-0.16-0.02-0.32-0.05-0.48-0.09l0.12-1.17c0.12,0.03,0.24,0.06,0.35,0.07c0.11,0.02,0.22,0.02,0.32,0.02
		c0.35,0,0.65-0.14,0.91-0.43c0.26-0.28,0.52-0.76,0.77-1.42L253.49,359.02z"/>
	<polygon style="clip-path:url(#SVGID_00000135665500711744665490000014837574189713422517_);" points="264.17,359.02 
		269.92,359.02 269.92,360.21 265.55,365.55 269.92,365.55 269.92,366.67 263.99,366.67 263.99,365.45 268.3,360.12 264.17,360.12 	
		"/>
	
		<rect x="287.68" y="300.67" transform="matrix(0.7113 -0.7029 0.7029 0.7113 -121.4776 308.0675)" style="clip-path:url(#SVGID_00000135665500711744665490000014837574189713422517_);fill:#E32028;" width="53.22" height="2.49"/>
	<polygon style="clip-path:url(#SVGID_00000135665500711744665490000014837574189713422517_);" points="297.36,392.99 
		293.36,392.99 293.36,322.62 186.98,322.62 186.98,318.61 297.36,318.61 	"/>
</g>
<rect x="316.29" y="167.14" class="st7" width="28.05" height="28.05"/>
</svg>
